<?xml version="1.0" encoding="utf-8"?>
<!-- Generator: Adobe Illustrator 24.3.0, SVG Export Plug-In . SVG Version: 6.00 Build 0)  -->
<svg version="1.1" id="Layer_1" xmlns="http://www.w3.org/2000/svg" xmlns:xlink="http://www.w3.org/1999/xlink" x="0px" y="0px"
	 viewBox="0 0 1080 424" style="enable-background:new 0 0 1080 424;" xml:space="preserve">
<style type="text/css">
	.st0{fill:none;stroke:#3B4B6C;stroke-width:11.544;stroke-miterlimit:10;}
	.st1{fill:#3B4B6C;}
	.st2{fill:none;stroke:#3B4B6C;stroke-width:10.1176;stroke-miterlimit:10;}
</style>
<g>
	<path class="st0" d="M701.12,165.06h186.49c24.53,0,44.39,19.86,44.39,44.39v119.02c0,24.53-19.86,44.39-44.39,44.39H191.4
		c-24.53,0-44.39-19.86-44.39-44.39V209.45c0-24.53,19.86-44.39,44.39-44.39h186.49"/>
	<path class="st1" d="M623.24,147.74h-0.02c-1.63,0-3.23-0.33-4.6-0.96l-74.48-33.89c-2.81-1.28-6.4-1.28-9.21,0l-74.56,33.89
		c-1.38,0.63-2.97,0.96-4.6,0.96h0c-8.62,0-11.88-8.09-4.6-11.4l72.29-32.88l11.49-5.2c2.8-1.27,6.37-1.27,9.17,0l11.49,5.2
		l72.23,32.88C635.12,139.66,631.85,147.74,623.24,147.74z"/>
	<path class="st1" d="M623.24,101.57h-0.02c-1.63,0-3.23-0.33-4.6-0.96l-74.48-33.89c-2.81-1.28-6.4-1.28-9.21,0l-74.56,33.89
		c-1.38,0.63-2.97,0.96-4.6,0.96h0c-8.62,0-11.88-8.09-4.6-11.4l72.29-32.88l11.49-5.2c2.8-1.27,6.37-1.27,9.17,0l11.49,5.2
		l72.23,32.88C635.12,93.49,631.85,101.57,623.24,101.57z"/>
</g>
<g>
	
		<text transform="matrix(1 0 0 1 1712.4712 452.6172)" class="st1" style="font-family:'Montserrat-SemiBold'; font-size:124.1161px;">ЕЩЁ</text>
	<path class="st2" d="M1723.86,505.27h-163.45c-21.5,0-38.9-17.4-38.9-38.9V362.06c0-21.5,17.4-38.9,38.9-38.9h610.2
		c21.5,0,38.9,17.4,38.9,38.9v104.31c0,21.5-17.4,38.9-38.9,38.9h-163.45"/>
	<path class="st1" d="M1792.12,520.45h0.02c1.43,0,2.83,0.29,4.04,0.84l65.28,29.7c2.46,1.12,5.6,1.12,8.07,0l65.35-29.7
		c1.21-0.55,2.6-0.84,4.03-0.84l0,0c7.55,0,10.41,7.09,4.03,9.99l-63.36,28.81l-10.07,4.56c-2.46,1.11-5.58,1.11-8.04,0l-10.07-4.56
		l-63.31-28.82C1781.7,527.53,1784.57,520.45,1792.12,520.45z"/>
	<path class="st1" d="M1792.12,560.92h0.02c1.43,0,2.83,0.29,4.04,0.84l65.28,29.7c2.46,1.12,5.6,1.12,8.07,0l65.35-29.7
		c1.21-0.55,2.6-0.84,4.03-0.84l0,0c7.55,0,10.41,7.09,4.03,9.99l-63.36,28.81l-10.07,4.56c-2.46,1.11-5.58,1.11-8.04,0l-10.07-4.56
		l-63.31-28.82C1781.7,568,1784.57,560.92,1792.12,560.92z"/>
</g>
</svg>
